{"glyphs":{":":{"x_min":0,"x_max":303,"ha":303,"o":"m 105 124 l 198 124 l 198 0 l 105 0 z m 105 517 l 198 517 l 198 393 l 105 393 z"},"$":{"x_min":0,"x_max":572,"ha":572,"o":"m 304 -147 l 260 -147 l 260 0 q 213 1 167 12 q 121 23 75 45 l 75 133 q 120 102 166 86 q 211 70 260 69 l 260 292 q 163 310 119 352 q 75 394 75 467 q 75 546 123 592 q 170 638 260 645 l 260 760 l 304 760 l 304 646 q 345 645 383 637 q 421 629 458 616 l 458 531 q 421 551 383 562 q 345 574 304 576 l 304 367 q 404 350 451 306 q 498 262 498 186 q 498 104 448 56 q 398 8 304 1 z m 260 376 l 260 576 q 209 570 182 544 q 156 518 156 475 q 156 433 180 410 q 205 386 260 376 z m 304 282 l 304 71 q 360 79 388 106 q 417 133 417 177 q 417 220 389 245 q 362 271 304 282 z"},"?":{"x_min":0,"x_max":478,"ha":478,"o":"m 172 124 l 261 124 l 261 0 l 172 0 z m 258 196 l 174 196 l 174 271 q 174 320 187 352 q 199 384 239 426 l 278 469 q 303 495 314 518 q 326 541 326 565 q 326 608 297 635 q 268 662 221 662 q 186 662 147 645 q 107 628 64 595 l 64 687 q 106 715 148 729 q 191 742 236 742 q 317 742 366 695 q 415 647 415 570 q 415 533 399 499 q 383 466 344 424 l 305 382 q 284 359 276 346 q 267 333 264 321 q 261 311 260 296 q 258 281 258 256 z"},"<":{"x_min":0,"x_max":754,"ha":754,"o":"m 659 492 l 205 313 l 659 135 l 659 46 l 95 273 l 95 354 l 659 581 z"},"'":{"x_min":0,"x_max":247,"ha":247,"o":"m 161 729 l 161 458 l 86 458 l 86 729 z"},"=":{"x_min":0,"x_max":754,"ha":754,"o":"m 95 454 l 659 454 l 659 372 l 95 372 z m 95 255 l 659 255 l 659 172 l 95 172 z"},"a":{"x_min":0,"x_max":551,"ha":551,"o":"m 309 275 q 210 275 173 250 q 135 225 135 165 q 135 117 163 89 q 191 61 240 61 q 308 61 348 114 q 389 167 389 255 l 389 275 z m 470 312 l 470 0 l 389 0 l 389 83 q 361 33 320 10 q 279 -14 219 -14 q 143 -14 99 33 q 54 80 54 159 q 54 251 110 298 q 165 345 275 345 l 389 345 l 389 354 q 389 416 352 450 q 315 484 249 484 q 207 484 167 473 q 127 461 90 439 l 90 522 q 134 541 176 551 q 218 560 257 560 q 364 560 417 499 q 470 437 470 312 z"},"L":{"x_min":0,"x_max":501,"ha":501,"o":"m 88 729 l 177 729 l 177 83 l 497 83 l 497 0 l 88 0 z"},"3":{"x_min":0,"x_max":572,"ha":572,"o":"m 365 393 q 429 378 465 330 q 500 282 500 212 q 500 104 434 45 q 367 -14 244 -14 q 203 -14 159 -5 q 115 4 68 22 l 68 117 q 105 93 149 81 q 193 69 241 69 q 325 69 368 105 q 412 142 412 212 q 412 276 372 313 q 331 349 258 349 l 182 349 l 182 430 l 262 430 q 327 430 362 459 q 397 488 397 543 q 397 599 361 629 q 325 659 258 659 q 222 659 180 650 q 139 642 88 623 l 88 711 q 139 727 183 734 q 227 742 266 742 q 367 742 426 691 q 485 640 485 553 q 485 493 454 451 q 423 409 365 393 z"},";":{"x_min":0,"x_max":303,"ha":303,"o":"m 105 517 l 198 517 l 198 393 l 105 393 z m 105 124 l 198 124 l 198 40 l 126 -116 l 69 -116 l 105 40 z"},"J":{"x_min":0,"x_max":265,"ha":265,"o":"m 89 729 l 178 729 l 178 51 q 178 -81 133 -141 q 87 -200 -12 -200 l -46 -200 l -46 -117 l -19 -117 q 41 -117 65 -81 q 89 -44 89 51 z"},"V":{"x_min":0,"x_max":615,"ha":615,"o":"m 257 0 l 7 729 l 100 729 l 308 115 l 516 729 l 608 729 l 358 0 z"},"\"":{"x_min":0,"x_max":414,"ha":414,"o":"m 161 729 l 161 458 l 86 458 l 86 729 z m 327 729 l 327 458 l 253 458 l 253 729 z"},"7":{"x_min":0,"x_max":572,"ha":572,"o":"m 74 729 l 496 729 l 496 687 l 257 0 l 165 0 l 389 646 l 74 646 z"},"S":{"x_min":0,"x_max":571,"ha":571,"o":"m 481 705 l 481 609 q 431 636 386 649 q 341 662 300 662 q 227 662 188 631 q 148 600 148 542 q 148 494 175 469 q 201 444 274 429 l 327 417 q 427 396 474 343 q 521 290 521 201 q 521 95 457 41 q 394 -14 270 -14 q 223 -14 171 -2 q 118 9 62 32 l 62 134 q 116 100 168 83 q 220 66 270 66 q 346 66 387 99 q 429 132 429 194 q 429 248 399 278 q 369 308 301 323 l 248 335 q 148 357 104 404 q 60 451 60 534 q 60 631 121 687 q 182 742 290 742 q 336 742 384 733 q 432 724 481 705 z"},"}":{"x_min":0,"x_max":572,"ha":572,"o":"m 112 -93 l 143 -93 q 205 -93 223 -72 q 242 -51 242 19 l 242 140 q 242 216 262 251 q 282 286 331 299 q 282 311 262 346 q 242 380 242 457 l 242 578 q 242 647 223 669 q 205 690 143 690 l 112 690 l 112 760 l 140 760 q 250 760 286 724 q 323 688 323 580 l 323 463 q 323 390 347 362 q 371 334 433 334 l 460 334 l 460 264 l 433 264 q 371 264 347 236 q 323 208 323 134 l 323 17 q 323 -91 286 -127 q 250 -163 140 -163 l 112 -163 z"},"Z":{"x_min":0,"x_max":616,"ha":616,"o":"m 51 729 l 566 729 l 566 654 l 151 83 l 576 83 l 576 0 l 41 0 l 41 75 l 455 646 l 51 646 z"},"x":{"x_min":0,"x_max":532,"ha":532,"o":"m 494 547 l 316 281 l 503 0 l 408 0 l 265 215 l 121 0 l 26 0 l 217 286 l 42 547 l 138 547 l 268 352 l 398 547 z"},")":{"x_min":0,"x_max":351,"ha":351,"o":"m 72 759 l 143 759 q 208 644 241 533 q 274 423 274 314 q 274 205 241 94 q 208 -17 143 -132 l 72 -132 q 130 -20 159 91 q 188 201 188 314 q 188 427 159 537 q 130 646 72 759 z"},"&":{"x_min":0,"x_max":702,"ha":702,"o":"m 219 392 q 179 353 160 313 q 142 274 142 231 q 142 160 188 112 q 235 65 305 65 q 347 65 383 80 q 420 96 452 127 z m 281 447 l 504 193 q 530 236 544 286 q 559 335 562 391 l 644 391 q 638 327 615 264 q 592 201 552 139 l 674 0 l 563 0 l 500 72 q 455 28 405 7 q 354 -14 297 -14 q 191 -14 124 53 q 57 120 57 225 q 57 288 86 343 q 116 397 174 446 q 153 477 142 507 q 131 538 131 567 q 131 646 180 694 q 229 742 310 742 q 346 742 383 733 q 419 725 456 707 l 456 618 q 418 641 383 653 q 349 665 318 665 q 272 665 244 638 q 215 611 215 568 q 215 543 228 518 q 241 493 281 447 z"},"_":{"x_min":0,"x_max":450,"ha":450,"o":"m 459 -166 l 459 -236 l -9 -236 l -9 -166 z"},"v":{"x_min":0,"x_max":532,"ha":532,"o":"m 27 547 l 112 547 l 266 88 l 420 547 l 506 547 l 321 0 l 211 0 z"},"O":{"x_min":0,"x_max":708,"ha":708,"o":"m 354 662 q 258 662 201 582 q 144 502 144 364 q 144 226 201 146 q 258 66 354 66 q 451 66 508 146 q 564 226 564 364 q 564 502 508 582 q 451 662 354 662 z m 354 742 q 493 742 575 639 q 658 537 658 364 q 658 191 575 89 q 493 -14 354 -14 q 216 -14 134 88 q 51 191 51 364 q 51 537 134 639 q 216 742 354 742 z"},"(":{"x_min":0,"x_max":351,"ha":351,"o":"m 279 759 q 220 646 192 537 q 163 427 163 314 q 163 201 192 91 q 221 -20 279 -132 l 209 -132 q 143 -17 110 94 q 77 205 77 314 q 77 423 110 533 q 143 644 209 759 z"},"C":{"x_min":0,"x_max":628,"ha":628,"o":"m 580 673 l 580 569 q 535 615 484 638 q 433 661 376 661 q 264 661 204 585 q 144 508 144 364 q 144 220 204 143 q 264 67 376 67 q 433 67 484 90 q 535 113 580 159 l 580 56 q 533 21 481 3 q 429 -14 371 -14 q 222 -14 136 87 q 51 188 51 364 q 51 540 136 641 q 222 742 371 742 q 430 742 482 725 q 534 708 580 673 z"},"W":{"x_min":0,"x_max":890,"ha":890,"o":"m 30 729 l 120 729 l 257 113 l 395 729 l 495 729 l 633 113 l 771 729 l 860 729 l 696 0 l 584 0 l 446 633 l 306 0 l 194 0 z"},"A":{"x_min":0,"x_max":615,"ha":615,"o":"m 308 632 l 187 269 l 429 269 z m 257 729 l 358 729 l 608 0 l 516 0 l 456 187 l 160 187 l 101 0 l 7 0 z"},"f":{"x_min":0,"x_max":316,"ha":316,"o":"m 334 760 l 334 685 l 257 685 q 213 685 196 666 q 179 646 179 595 l 179 547 l 312 547 l 312 477 l 179 477 l 179 0 l 98 0 l 98 477 l 21 477 l 21 547 l 98 547 l 98 585 q 98 676 136 718 q 174 760 257 760 z"},"Q":{"x_min":0,"x_max":708,"ha":708,"o":"m 354 662 q 258 662 201 582 q 144 502 144 364 q 144 226 201 146 q 258 66 354 66 q 451 66 508 146 q 564 226 564 364 q 564 502 508 582 q 451 662 354 662 z m 479 13 l 596 -129 l 489 -129 l 392 -12 q 377 -13 369 -14 q 362 -14 354 -14 q 216 -14 134 89 q 51 191 51 364 q 51 537 134 639 q 216 742 354 742 q 493 742 575 639 q 658 537 658 364 q 658 237 612 146 q 566 56 479 13 z"},"w":{"x_min":0,"x_max":736,"ha":736,"o":"m 38 547 l 119 547 l 220 120 l 320 547 l 416 547 l 517 120 l 617 547 l 698 547 l 569 0 l 474 0 l 368 448 l 262 0 l 167 0 z"},"-":{"x_min":0,"x_max":325,"ha":325,"o":"m 44 314 l 281 314 l 281 234 l 44 234 z"},"E":{"x_min":0,"x_max":568,"ha":568,"o":"m 88 729 l 503 729 l 503 646 l 177 646 l 177 430 l 490 430 l 490 347 l 177 347 l 177 83 l 511 83 l 511 0 l 88 0 z"},"s":{"x_min":0,"x_max":469,"ha":469,"o":"m 398 531 l 398 446 q 364 465 327 475 q 291 485 251 485 q 191 485 161 464 q 130 444 130 403 q 130 372 152 354 q 174 336 239 320 l 266 313 q 353 292 389 255 q 425 218 425 151 q 425 75 371 30 q 316 -14 222 -14 q 182 -14 139 -6 q 96 3 49 20 l 49 113 q 94 87 137 74 q 181 61 223 61 q 280 61 311 83 q 342 104 342 144 q 342 181 320 200 q 297 220 222 238 l 194 245 q 119 263 86 299 q 52 335 52 399 q 52 476 102 518 q 151 560 241 560 q 286 560 326 553 q 365 545 398 531 z"},">":{"x_min":0,"x_max":754,"ha":754,"o":"m 95 492 l 95 581 l 659 354 l 659 273 l 95 46 l 95 135 l 548 313 z"},"l":{"x_min":0,"x_max":250,"ha":250,"o":"m 85 760 l 166 760 l 166 0 l 85 0 z"},"8":{"x_min":0,"x_max":572,"ha":572,"o":"m 286 346 q 223 346 187 309 q 150 271 150 205 q 150 139 187 102 q 223 64 286 64 q 350 64 386 102 q 422 140 422 205 q 422 271 386 309 q 350 346 286 346 z m 197 388 q 140 404 108 447 q 77 491 77 553 q 77 641 133 691 q 188 742 286 742 q 384 742 440 691 q 496 641 496 553 q 496 491 464 447 q 432 404 375 388 q 439 372 475 323 q 511 275 511 205 q 511 99 453 42 q 395 -14 286 -14 q 178 -14 119 42 q 61 99 61 205 q 61 275 97 323 q 133 372 197 388 z m 165 544 q 165 487 197 456 q 229 424 286 424 q 343 424 375 456 q 408 487 408 544 q 408 601 375 632 q 343 664 286 664 q 229 664 197 632 q 165 601 165 544 z"},"\\":{"x_min":0,"x_max":303,"ha":303,"o":"m 75 729 l 303 -93 l 229 -93 l 0 729 z"},"e":{"x_min":0,"x_max":554,"ha":554,"o":"m 506 296 l 506 252 l 134 252 q 139 159 184 111 q 229 62 310 62 q 356 62 400 75 q 444 87 487 113 l 487 28 q 443 7 398 -3 q 352 -14 305 -14 q 187 -14 118 62 q 50 138 50 268 q 50 402 115 481 q 180 560 291 560 q 390 560 448 489 q 506 418 506 296 z m 425 322 q 424 396 388 440 q 352 484 292 484 q 224 484 183 441 q 143 399 137 322 z"},"b":{"x_min":0,"x_max":571,"ha":571,"o":"m 438 273 q 438 372 401 428 q 365 485 301 485 q 236 485 200 428 q 163 372 163 273 q 163 174 200 117 q 236 61 301 61 q 365 61 401 117 q 438 174 438 273 z m 163 464 q 188 513 227 536 q 266 560 320 560 q 410 560 466 481 q 522 402 522 273 q 522 144 466 65 q 410 -14 320 -14 q 266 -14 227 10 q 188 33 163 82 l 163 0 l 82 0 l 82 760 l 163 760 z"},"%":{"x_min":0,"x_max":855,"ha":855,"o":"m 654 321 q 616 321 594 285 q 573 249 573 184 q 573 121 594 84 q 616 48 654 48 q 692 48 714 84 q 735 121 735 184 q 735 248 714 284 q 692 321 654 321 z m 654 383 q 724 383 765 329 q 806 275 806 184 q 806 93 764 39 q 723 -14 654 -14 q 584 -14 543 39 q 502 93 502 184 q 502 276 543 329 q 584 383 654 383 z m 201 680 q 163 680 141 644 q 120 607 120 544 q 120 479 141 443 q 163 407 201 407 q 239 407 261 443 q 283 479 283 544 q 283 607 261 644 q 239 680 201 680 z m 598 742 l 668 742 l 257 -14 l 187 -14 z m 201 742 q 271 742 312 689 q 353 635 353 544 q 353 452 312 398 q 271 345 201 345 q 131 345 90 399 q 50 452 50 544 q 50 635 91 688 q 131 742 201 742 z"},"m":{"x_min":0,"x_max":876,"ha":876,"o":"m 468 442 q 499 502 541 531 q 583 560 640 560 q 717 560 759 500 q 800 440 800 330 l 800 0 l 719 0 l 719 327 q 719 406 694 444 q 669 482 617 482 q 555 482 518 436 q 481 389 481 309 l 481 0 l 400 0 l 400 327 q 400 406 375 444 q 350 482 298 482 q 236 482 199 435 q 163 389 163 309 l 163 0 l 82 0 l 82 547 l 163 547 l 163 462 q 191 512 229 536 q 268 560 321 560 q 375 560 413 530 q 450 500 468 442 z"},"#":{"x_min":0,"x_max":754,"ha":754,"o":"m 460 440 l 332 440 l 295 277 l 424 277 z m 394 718 l 349 515 l 477 515 l 523 718 l 593 718 l 548 515 l 685 515 l 685 440 l 531 440 l 495 277 l 635 277 l 635 202 l 478 202 l 432 0 l 362 0 l 407 202 l 278 202 l 233 0 l 162 0 l 208 202 l 69 202 l 69 277 l 224 277 l 261 440 l 120 440 l 120 515 l 278 515 l 323 718 z"},",":{"x_min":0,"x_max":286,"ha":286,"o":"m 105 124 l 198 124 l 198 40 l 126 -116 l 69 -116 l 105 40 z"},"n":{"x_min":0,"x_max":570,"ha":570,"o":"m 494 330 l 494 0 l 413 0 l 413 327 q 413 405 386 443 q 358 482 304 482 q 239 482 201 436 q 163 389 163 309 l 163 0 l 82 0 l 82 547 l 163 547 l 163 462 q 192 511 231 536 q 271 560 322 560 q 407 560 450 502 q 494 443 494 330 z"},"h":{"x_min":0,"x_max":570,"ha":570,"o":"m 494 330 l 494 0 l 413 0 l 413 327 q 413 405 386 443 q 358 482 304 482 q 239 482 201 436 q 163 389 163 309 l 163 0 l 82 0 l 82 760 l 163 760 l 163 462 q 192 511 231 536 q 271 560 322 560 q 407 560 450 502 q 494 443 494 330 z"},"z":{"x_min":0,"x_max":472,"ha":472,"o":"m 50 547 l 434 547 l 434 465 l 130 72 l 434 72 l 434 0 l 39 0 l 39 82 l 343 475 l 50 475 z"},"B":{"x_min":0,"x_max":617,"ha":617,"o":"m 177 348 l 177 81 l 319 81 q 391 81 426 114 q 460 147 460 215 q 460 283 426 316 q 391 348 319 348 z m 177 648 l 177 428 l 309 428 q 374 428 406 455 q 438 482 438 538 q 438 593 406 621 q 374 648 309 648 z m 88 729 l 315 729 q 417 729 471 682 q 526 635 526 549 q 526 482 498 442 q 470 403 416 393 q 481 377 518 328 q 554 278 554 204 q 554 106 494 53 q 434 0 324 0 l 88 0 z"},"K":{"x_min":0,"x_max":590,"ha":590,"o":"m 88 729 l 177 729 l 177 421 l 472 729 l 586 729 l 260 389 l 609 0 l 492 0 l 177 351 l 177 0 l 88 0 z"},"R":{"x_min":0,"x_max":625,"ha":625,"o":"m 399 342 q 428 331 455 296 q 482 261 509 199 l 600 0 l 504 0 l 420 187 q 388 260 357 284 q 327 308 274 308 l 177 308 l 177 0 l 88 0 l 88 729 l 289 729 q 401 729 457 677 q 512 625 512 519 q 512 450 483 405 q 455 359 399 342 z m 177 648 l 177 389 l 289 389 q 353 389 386 422 q 418 455 418 519 q 418 583 386 615 q 353 648 289 648 z"},"T":{"x_min":0,"x_max":549,"ha":549,"o":"m -2 729 l 553 729 l 553 646 l 320 646 l 320 0 l 231 0 l 231 646 l -2 646 z"},"P":{"x_min":0,"x_max":542,"ha":542,"o":"m 177 648 l 177 374 l 289 374 q 351 374 385 410 q 418 445 418 511 q 418 577 385 612 q 351 648 289 648 z m 88 729 l 289 729 q 399 729 455 674 q 512 618 512 511 q 512 403 455 348 q 399 293 289 293 l 177 293 l 177 0 l 88 0 z"},"|":{"x_min":0,"x_max":303,"ha":303,"o":"m 189 764 l 189 -236 l 114 -236 l 114 764 z"},"t":{"x_min":0,"x_max":353,"ha":353,"o":"m 165 702 l 165 547 l 332 547 l 332 477 l 165 477 l 165 180 q 165 113 181 94 q 198 75 248 75 l 332 75 l 332 0 l 248 0 q 155 0 119 39 q 83 78 83 180 l 83 477 l 24 477 l 24 547 l 83 547 l 83 702 z"},"M":{"x_min":0,"x_max":776,"ha":776,"o":"m 88 729 l 221 729 l 388 233 l 556 729 l 688 729 l 688 0 l 602 0 l 602 640 l 433 140 l 344 140 l 174 640 l 174 0 l 88 0 z"},"g":{"x_min":0,"x_max":571,"ha":571,"o":"m 409 280 q 409 377 372 431 q 336 485 271 485 q 206 485 169 431 q 133 377 133 280 q 133 183 169 129 q 206 75 271 75 q 336 75 372 129 q 409 183 409 280 z m 490 68 q 490 -72 434 -140 q 378 -208 263 -208 q 220 -208 182 -201 q 145 -194 109 -179 l 109 -92 q 145 -113 179 -124 q 214 -134 250 -134 q 330 -134 369 -88 q 409 -42 409 52 l 409 96 q 384 48 345 24 q 306 0 251 0 q 160 0 105 77 q 50 153 50 280 q 50 407 105 483 q 160 560 251 560 q 306 560 345 536 q 384 512 409 464 l 409 547 l 490 547 z"},"j":{"x_min":0,"x_max":250,"ha":250,"o":"m 85 547 l 166 547 l 166 -10 q 166 -114 130 -161 q 95 -208 15 -208 l -16 -208 l -16 -132 l 6 -132 q 52 -132 69 -108 q 85 -84 85 -10 z m 85 760 l 166 760 l 166 646 l 85 646 z"},"i":{"x_min":0,"x_max":250,"ha":250,"o":"m 85 547 l 166 547 l 166 0 l 85 0 z m 85 760 l 166 760 l 166 646 l 85 646 z"},"y":{"x_min":0,"x_max":532,"ha":532,"o":"m 290 -51 q 255 -148 223 -178 q 190 -208 136 -208 l 71 -208 l 71 -133 l 119 -133 q 152 -133 170 -115 q 189 -98 211 -32 l 226 9 l 27 547 l 112 547 l 266 119 l 420 547 l 506 547 z"},"@":{"x_min":0,"x_max":900,"ha":900,"o":"m 335 262 q 335 192 366 153 q 397 113 452 113 q 506 113 537 153 q 568 193 568 262 q 568 331 536 371 q 504 411 451 411 q 397 411 366 371 q 335 331 335 262 z m 574 116 q 548 79 514 61 q 480 43 435 43 q 359 43 312 104 q 265 165 265 262 q 265 360 312 421 q 359 482 435 482 q 480 482 514 464 q 548 445 574 408 l 574 472 l 637 472 l 637 113 q 701 124 738 178 q 774 232 774 319 q 774 371 760 417 q 746 463 718 502 q 672 566 607 600 q 541 634 464 634 q 410 634 360 618 q 310 602 268 571 q 199 521 160 440 q 121 359 121 265 q 121 188 146 120 q 172 52 220 0 q 266 -51 326 -77 q 387 -104 456 -104 q 513 -104 567 -83 q 622 -62 668 -22 l 708 -76 q 652 -124 588 -149 q 523 -174 456 -174 q 375 -174 303 -142 q 230 -110 174 -49 q 118 12 89 93 q 60 173 60 265 q 60 354 89 435 q 119 515 174 576 q 231 638 305 671 q 380 704 463 704 q 556 704 635 662 q 715 619 770 541 q 802 493 820 437 q 837 381 837 321 q 837 192 767 118 q 697 44 574 41 z"},".":{"x_min":0,"x_max":286,"ha":286,"o":"m 96 124 l 189 124 l 189 0 l 96 0 z"},"p":{"x_min":0,"x_max":571,"ha":571,"o":"m 163 82 l 163 -208 l 82 -208 l 82 547 l 163 547 l 163 464 q 188 513 227 536 q 266 560 320 560 q 410 560 466 481 q 522 402 522 273 q 522 144 466 65 q 410 -14 320 -14 q 266 -14 227 10 q 188 33 163 82 z m 438 273 q 438 372 401 428 q 365 485 301 485 q 236 485 200 428 q 163 372 163 273 q 163 174 200 117 q 236 61 301 61 q 365 61 401 117 q 438 174 438 273 z"},"X":{"x_min":0,"x_max":616,"ha":616,"o":"m 57 729 l 152 729 l 315 458 l 479 729 l 574 729 l 363 379 l 588 0 l 493 0 l 309 310 l 123 0 l 27 0 l 261 389 z"},"*":{"x_min":0,"x_max":450,"ha":450,"o":"m 423 609 l 266 514 l 423 419 l 397 371 l 250 470 l 250 286 l 200 286 l 200 470 l 52 371 l 27 419 l 185 514 l 27 609 l 52 657 l 200 558 l 200 742 l 250 742 l 250 558 l 397 657 z"},"Y":{"x_min":0,"x_max":549,"ha":549,"o":"m -1 729 l 94 729 l 276 429 l 457 729 l 552 729 l 320 347 l 320 0 l 231 0 l 231 347 z"},"c":{"x_min":0,"x_max":495,"ha":495,"o":"m 439 526 l 439 442 q 405 463 370 473 q 336 484 301 484 q 222 484 178 428 q 135 373 135 273 q 135 173 178 117 q 222 62 301 62 q 336 62 370 73 q 405 83 439 104 l 439 21 q 405 3 369 -5 q 333 -14 292 -14 q 181 -14 115 63 q 50 141 50 273 q 50 407 116 483 q 182 560 297 560 q 334 560 370 552 q 406 543 439 526 z"},"!":{"x_min":0,"x_max":360,"ha":360,"o":"m 136 124 l 225 124 l 225 0 l 136 0 z m 136 729 l 225 729 l 225 409 l 216 235 l 145 235 l 136 409 z"},"/":{"x_min":0,"x_max":303,"ha":303,"o":"m 229 729 l 303 729 l 75 -93 l 0 -93 z"},"[":{"x_min":0,"x_max":351,"ha":351,"o":"m 77 760 l 264 760 l 264 690 l 158 690 l 158 -62 l 264 -62 l 264 -132 l 77 -132 z"},"6":{"x_min":0,"x_max":572,"ha":572,"o":"m 297 404 q 237 404 202 358 q 167 313 167 234 q 167 155 202 110 q 237 64 297 64 q 357 64 392 110 q 427 155 427 234 q 427 313 392 358 q 357 404 297 404 z m 473 713 l 473 623 q 440 641 406 650 q 372 659 338 659 q 250 659 204 593 q 158 527 151 394 q 177 437 216 459 q 255 482 302 482 q 401 482 459 415 q 516 349 516 234 q 516 122 456 54 q 396 -14 297 -14 q 183 -14 123 83 q 63 180 63 364 q 63 537 137 639 q 210 742 335 742 q 368 742 402 735 q 437 728 473 713 z"},"r":{"x_min":0,"x_max":370,"ha":370,"o":"m 370 463 q 356 472 340 476 q 324 480 305 480 q 236 480 200 430 q 163 381 163 288 l 163 0 l 82 0 l 82 547 l 163 547 l 163 462 q 188 512 229 536 q 271 560 329 560 q 337 560 347 559 q 357 558 370 555 z"},"2":{"x_min":0,"x_max":572,"ha":572,"o":"m 173 83 l 482 83 l 482 0 l 66 0 l 66 83 q 116 141 204 239 q 291 337 313 365 q 356 418 373 455 q 390 492 390 528 q 390 586 353 623 q 316 659 257 659 q 216 659 169 643 q 123 627 70 594 l 70 694 q 124 718 171 730 q 217 742 256 742 q 358 742 418 686 q 479 629 479 534 q 479 489 464 449 q 449 409 409 354 q 397 340 339 272 q 280 205 173 83 z"},"{":{"x_min":0,"x_max":572,"ha":572,"o":"m 460 -93 l 460 -163 l 433 -163 q 323 -163 286 -127 q 249 -91 249 17 l 249 134 q 249 208 225 236 q 202 264 139 264 l 112 264 l 112 334 l 139 334 q 202 334 226 362 q 249 390 249 463 l 249 580 q 249 688 286 724 q 323 760 433 760 l 460 760 l 460 690 l 430 690 q 368 690 349 668 q 331 647 331 578 l 331 457 q 331 380 311 346 q 291 311 242 299 q 291 286 311 251 q 331 216 331 140 l 331 19 q 331 -50 349 -71 q 368 -93 430 -93 z"},"9":{"x_min":0,"x_max":572,"ha":572,"o":"m 99 15 l 99 105 q 132 87 167 78 q 201 69 234 69 q 322 69 368 135 q 415 200 421 334 q 396 292 356 270 q 317 247 270 247 q 171 247 114 313 q 57 379 57 494 q 57 606 116 674 q 176 742 275 742 q 389 742 449 645 q 509 548 509 364 q 509 191 436 89 q 362 -14 238 -14 q 204 -14 170 -7 q 136 0 99 15 z m 275 324 q 335 324 370 370 q 405 415 405 494 q 405 573 370 618 q 335 664 275 664 q 216 664 181 618 q 146 573 146 494 q 146 415 181 370 q 216 324 275 324 z"}," ":{"x_min":0,"x_max":286,"ha":286,"o":""},"I":{"x_min":0,"x_max":265,"ha":265,"o":"m 88 729 l 177 729 l 177 0 l 88 0 z"},"H":{"x_min":0,"x_max":677,"ha":677,"o":"m 88 729 l 177 729 l 177 430 l 500 430 l 500 729 l 588 729 l 588 0 l 500 0 l 500 347 l 177 347 l 177 0 l 88 0 z"},"4":{"x_min":0,"x_max":572,"ha":572,"o":"m 340 643 l 116 254 l 340 254 z m 317 729 l 429 729 l 429 254 l 522 254 l 522 172 l 429 172 l 429 0 l 340 0 l 340 172 l 44 172 l 44 267 z"},"~":{"x_min":0,"x_max":754,"ha":754,"o":"m 659 399 l 659 312 q 613 273 573 257 q 534 240 491 240 q 443 240 379 269 q 374 271 372 272 q 369 273 362 276 q 294 306 253 306 q 214 306 176 287 q 139 269 95 228 l 95 315 q 142 354 181 370 q 220 387 263 387 q 311 387 376 358 q 380 356 382 355 q 386 354 392 351 q 460 321 501 321 q 539 321 576 339 q 613 358 659 399 z"},"D":{"x_min":0,"x_max":693,"ha":693,"o":"m 177 648 l 177 81 l 284 81 q 420 81 483 149 q 546 218 546 365 q 546 512 483 580 q 420 648 284 648 z m 88 729 l 271 729 q 461 729 551 641 q 640 553 640 365 q 640 177 550 88 q 460 0 271 0 l 88 0 z"},"^":{"x_min":0,"x_max":754,"ha":754,"o":"m 420 729 l 659 457 l 570 457 l 377 650 l 184 457 l 95 457 l 334 729 z"},"0":{"x_min":0,"x_max":572,"ha":572,"o":"m 286 664 q 218 664 183 589 q 148 514 148 364 q 148 214 183 139 q 218 64 286 64 q 355 64 389 139 q 424 214 424 364 q 424 514 389 589 q 355 664 286 664 z m 286 742 q 396 742 455 645 q 513 548 513 364 q 513 180 455 83 q 396 -14 286 -14 q 176 -14 118 83 q 60 180 60 364 q 60 548 118 645 q 176 742 286 742 z"},"F":{"x_min":0,"x_max":518,"ha":518,"o":"m 88 729 l 465 729 l 465 646 l 177 646 l 177 431 l 438 431 l 438 348 l 177 348 l 177 0 l 88 0 z"},"`":{"x_min":0,"x_max":450,"ha":450,"o":"m 161 800 l 285 617 l 218 617 l 75 800 z"},"k":{"x_min":0,"x_max":521,"ha":521,"o":"m 82 760 l 163 760 l 163 311 l 404 547 l 508 547 l 247 291 l 519 0 l 413 0 l 163 267 l 163 0 l 82 0 z"},"u":{"x_min":0,"x_max":570,"ha":570,"o":"m 77 216 l 77 547 l 157 547 l 157 219 q 157 142 185 103 q 212 64 266 64 q 332 64 370 110 q 408 157 408 237 l 408 547 l 489 547 l 489 0 l 408 0 l 408 84 q 378 34 340 10 q 301 -14 249 -14 q 165 -14 121 44 q 77 103 77 216 z m 280 560 z"},"]":{"x_min":0,"x_max":351,"ha":351,"o":"m 274 760 l 274 -132 l 87 -132 l 87 -62 l 192 -62 l 192 690 l 87 690 l 87 760 z"},"U":{"x_min":0,"x_max":659,"ha":659,"o":"m 78 729 l 167 729 l 167 286 q 167 169 206 117 q 244 66 330 66 q 415 66 453 117 q 491 169 491 286 l 491 729 l 581 729 l 581 274 q 581 131 517 59 q 454 -14 330 -14 q 205 -14 142 59 q 78 131 78 274 z"},"o":{"x_min":0,"x_max":550,"ha":550,"o":"m 275 484 q 210 484 173 427 q 135 371 135 273 q 135 175 172 118 q 210 62 275 62 q 340 62 378 119 q 416 175 416 273 q 416 370 378 427 q 340 484 275 484 z m 275 560 q 381 560 441 484 q 501 408 501 273 q 501 139 441 62 q 381 -14 275 -14 q 169 -14 110 62 q 50 139 50 273 q 50 408 110 484 q 169 560 275 560 z"},"N":{"x_min":0,"x_max":673,"ha":673,"o":"m 88 729 l 208 729 l 499 119 l 499 729 l 585 729 l 585 0 l 465 0 l 174 610 l 174 0 l 88 0 z"},"+":{"x_min":0,"x_max":754,"ha":754,"o":"m 414 627 l 414 355 l 659 355 l 659 272 l 414 272 l 414 0 l 340 0 l 340 272 l 95 272 l 95 355 l 340 355 l 340 627 z"},"G":{"x_min":0,"x_max":697,"ha":697,"o":"m 536 104 l 536 300 l 391 300 l 391 381 l 624 381 l 624 68 q 572 27 510 7 q 448 -14 378 -14 q 224 -14 137 86 q 51 186 51 364 q 51 542 137 642 q 224 742 378 742 q 442 742 500 725 q 558 707 606 673 l 606 568 q 557 614 502 638 q 446 661 385 661 q 265 661 205 586 q 144 512 144 364 q 144 216 205 142 q 265 67 385 67 q 433 67 469 76 q 506 85 536 104 z"},"q":{"x_min":0,"x_max":571,"ha":571,"o":"m 133 273 q 133 174 170 117 q 207 61 271 61 q 335 61 372 117 q 409 174 409 273 q 409 372 372 428 q 335 485 271 485 q 207 485 170 428 q 133 372 133 273 z m 409 82 q 383 33 344 10 q 306 -14 251 -14 q 162 -14 106 65 q 50 144 50 273 q 50 402 106 481 q 162 560 251 560 q 306 560 344 536 q 383 513 409 464 l 409 547 l 490 547 l 490 -208 l 409 -208 z"},"d":{"x_min":0,"x_max":571,"ha":571,"o":"m 409 464 l 409 760 l 490 760 l 490 0 l 409 0 l 409 82 q 383 33 344 10 q 306 -14 251 -14 q 162 -14 106 65 q 50 144 50 273 q 50 402 106 481 q 162 560 251 560 q 306 560 344 536 q 383 513 409 464 z m 133 273 q 133 174 170 117 q 207 61 271 61 q 335 61 372 117 q 409 174 409 273 q 409 372 372 428 q 335 485 271 485 q 207 485 170 428 q 133 372 133 273 z"},"1":{"x_min":0,"x_max":572,"ha":572,"o":"m 112 83 l 257 83 l 257 639 l 99 604 l 99 694 l 256 729 l 345 729 l 345 83 l 490 83 l 490 0 l 112 0 z"},"5":{"x_min":0,"x_max":572,"ha":572,"o":"m 97 729 l 446 729 l 446 646 l 178 646 l 178 467 q 198 475 217 478 q 236 482 256 482 q 366 482 430 415 q 494 348 494 234 q 494 116 428 51 q 362 -14 242 -14 q 201 -14 158 -6 q 115 1 69 17 l 69 116 q 109 92 151 81 q 193 69 240 69 q 316 69 361 113 q 405 158 405 234 q 405 310 361 354 q 316 399 240 399 q 205 399 169 390 q 134 381 97 363 z"}}}
